<mxfile host="app.diagrams.net" agent="Mozilla/5.0 (Windows NT 10.0; Win64; x64) AppleWebKit/537.36 (KHTML, like Gecko) Chrome/130.0.0.0 Safari/537.36" version="24.8.6">
  <diagram name="第 1 页" id="7r8FmQtcthmdNEAXFRa2">
    <mxGraphModel dx="-220" dy="780" grid="1" gridSize="10" guides="1" tooltips="1" connect="1" arrows="1" fold="1" page="1" pageScale="1" pageWidth="827" pageHeight="1169" math="0" shadow="0">
      <root>
        <mxCell id="0" />
        <mxCell id="1" parent="0" />
        <mxCell id="4aDgBQ0aaNmfEH5Fw95p-1" value="网络传输" style="swimlane;whiteSpace=wrap;html=1;" vertex="1" parent="1">
          <mxGeometry x="1764" y="518" width="611" height="101" as="geometry" />
        </mxCell>
        <mxCell id="4aDgBQ0aaNmfEH5Fw95p-2" value="&lt;font style=&quot;font-size: 22px;&quot;&gt;通信卫星&lt;/font&gt;" style="rounded=1;whiteSpace=wrap;html=1;" vertex="1" parent="4aDgBQ0aaNmfEH5Fw95p-1">
          <mxGeometry x="14" y="36" width="96" height="60" as="geometry" />
        </mxCell>
        <mxCell id="4aDgBQ0aaNmfEH5Fw95p-3" value="&lt;font style=&quot;font-size: 22px;&quot;&gt;图传基站&lt;/font&gt;" style="rounded=1;whiteSpace=wrap;html=1;" vertex="1" parent="4aDgBQ0aaNmfEH5Fw95p-1">
          <mxGeometry x="121" y="35" width="96" height="60" as="geometry" />
        </mxCell>
        <mxCell id="4aDgBQ0aaNmfEH5Fw95p-4" value="&lt;font style=&quot;font-size: 22px;&quot;&gt;4G/5G移动基站&lt;/font&gt;" style="rounded=1;whiteSpace=wrap;html=1;" vertex="1" parent="4aDgBQ0aaNmfEH5Fw95p-1">
          <mxGeometry x="231" y="35" width="122" height="60" as="geometry" />
        </mxCell>
        <mxCell id="4aDgBQ0aaNmfEH5Fw95p-5" value="&lt;font style=&quot;font-size: 22px;&quot;&gt;GSM基站&lt;/font&gt;" style="rounded=1;whiteSpace=wrap;html=1;" vertex="1" parent="4aDgBQ0aaNmfEH5Fw95p-1">
          <mxGeometry x="359" y="35" width="97" height="60" as="geometry" />
        </mxCell>
        <mxCell id="4aDgBQ0aaNmfEH5Fw95p-6" value="&lt;font style=&quot;font-size: 22px;&quot;&gt;现场WIFI覆盖&lt;/font&gt;" style="rounded=1;whiteSpace=wrap;html=1;" vertex="1" parent="4aDgBQ0aaNmfEH5Fw95p-1">
          <mxGeometry x="460" y="36" width="140" height="60" as="geometry" />
        </mxCell>
        <mxCell id="4aDgBQ0aaNmfEH5Fw95p-7" value="时空大数据平台" style="swimlane;whiteSpace=wrap;html=1;" vertex="1" parent="1">
          <mxGeometry x="1763" y="350" width="611" height="110" as="geometry" />
        </mxCell>
        <mxCell id="4aDgBQ0aaNmfEH5Fw95p-10" value="&lt;span style=&quot;font-size: 22px;&quot;&gt;服务链&lt;/span&gt;" style="rounded=1;whiteSpace=wrap;html=1;" vertex="1" parent="4aDgBQ0aaNmfEH5Fw95p-7">
          <mxGeometry x="127" y="30" width="123" height="60" as="geometry" />
        </mxCell>
        <mxCell id="4aDgBQ0aaNmfEH5Fw95p-17" value="&lt;span style=&quot;font-size: 22px;&quot;&gt;资源池&lt;/span&gt;" style="rounded=1;whiteSpace=wrap;html=1;" vertex="1" parent="4aDgBQ0aaNmfEH5Fw95p-7">
          <mxGeometry x="7" y="30" width="103" height="60" as="geometry" />
        </mxCell>
        <mxCell id="4aDgBQ0aaNmfEH5Fw95p-20" value="&lt;span style=&quot;font-size: 22px;&quot;&gt;虚拟管理&lt;/span&gt;" style="rounded=1;whiteSpace=wrap;html=1;" vertex="1" parent="4aDgBQ0aaNmfEH5Fw95p-7">
          <mxGeometry x="447" y="30" width="150" height="60" as="geometry" />
        </mxCell>
        <mxCell id="4aDgBQ0aaNmfEH5Fw95p-21" value="&lt;span style=&quot;font-size: 22px;&quot;&gt;服务注册中心&lt;/span&gt;" style="rounded=1;whiteSpace=wrap;html=1;" vertex="1" parent="4aDgBQ0aaNmfEH5Fw95p-7">
          <mxGeometry x="267" y="30" width="160" height="60" as="geometry" />
        </mxCell>
        <mxCell id="4aDgBQ0aaNmfEH5Fw95p-22" value="应用层" style="swimlane;whiteSpace=wrap;html=1;" vertex="1" parent="1">
          <mxGeometry x="1764" y="180" width="611" height="110" as="geometry" />
        </mxCell>
        <mxCell id="4aDgBQ0aaNmfEH5Fw95p-23" value="&lt;span style=&quot;font-size: 22px;&quot;&gt;火灾预警&lt;/span&gt;" style="rounded=1;whiteSpace=wrap;html=1;" vertex="1" parent="4aDgBQ0aaNmfEH5Fw95p-22">
          <mxGeometry x="10" y="40" width="60" height="60" as="geometry" />
        </mxCell>
        <mxCell id="4aDgBQ0aaNmfEH5Fw95p-24" value="&lt;span style=&quot;font-size: 22px;&quot;&gt;信息共享&lt;/span&gt;" style="rounded=1;whiteSpace=wrap;html=1;" vertex="1" parent="4aDgBQ0aaNmfEH5Fw95p-22">
          <mxGeometry x="143" y="40" width="60" height="60" as="geometry" />
        </mxCell>
        <mxCell id="4aDgBQ0aaNmfEH5Fw95p-25" value="&lt;span style=&quot;font-size: 22px;&quot;&gt;指挥调度&lt;/span&gt;" style="rounded=1;whiteSpace=wrap;html=1;" vertex="1" parent="4aDgBQ0aaNmfEH5Fw95p-22">
          <mxGeometry x="209" y="40" width="60" height="60" as="geometry" />
        </mxCell>
        <mxCell id="4aDgBQ0aaNmfEH5Fw95p-26" value="&lt;span style=&quot;font-size: 22px;&quot;&gt;装备管理&lt;/span&gt;" style="rounded=1;whiteSpace=wrap;html=1;" vertex="1" parent="4aDgBQ0aaNmfEH5Fw95p-22">
          <mxGeometry x="275" y="40" width="60" height="60" as="geometry" />
        </mxCell>
        <mxCell id="4aDgBQ0aaNmfEH5Fw95p-27" value="&lt;span style=&quot;font-size: 22px;&quot;&gt;培训演练&lt;/span&gt;" style="rounded=1;whiteSpace=wrap;html=1;" vertex="1" parent="4aDgBQ0aaNmfEH5Fw95p-22">
          <mxGeometry x="474" y="40" width="60" height="60" as="geometry" />
        </mxCell>
        <mxCell id="4aDgBQ0aaNmfEH5Fw95p-28" value="&lt;span style=&quot;font-size: 22px;&quot;&gt;公众教育&lt;/span&gt;" style="rounded=1;whiteSpace=wrap;html=1;" vertex="1" parent="4aDgBQ0aaNmfEH5Fw95p-22">
          <mxGeometry x="540" y="40" width="60" height="60" as="geometry" />
        </mxCell>
        <mxCell id="4aDgBQ0aaNmfEH5Fw95p-29" value="&lt;span style=&quot;font-size: 22px;&quot;&gt;分析决策&lt;/span&gt;" style="rounded=1;whiteSpace=wrap;html=1;" vertex="1" parent="4aDgBQ0aaNmfEH5Fw95p-22">
          <mxGeometry x="341" y="40" width="60" height="60" as="geometry" />
        </mxCell>
        <mxCell id="4aDgBQ0aaNmfEH5Fw95p-30" value="&lt;span style=&quot;font-size: 22px;&quot;&gt;救援评估&lt;/span&gt;" style="rounded=1;whiteSpace=wrap;html=1;" vertex="1" parent="4aDgBQ0aaNmfEH5Fw95p-22">
          <mxGeometry x="408" y="40" width="60" height="60" as="geometry" />
        </mxCell>
        <mxCell id="4aDgBQ0aaNmfEH5Fw95p-31" value="&lt;span style=&quot;font-size: 22px;&quot;&gt;态势感知&lt;/span&gt;" style="rounded=1;whiteSpace=wrap;html=1;" vertex="1" parent="4aDgBQ0aaNmfEH5Fw95p-22">
          <mxGeometry x="76" y="40" width="60" height="60" as="geometry" />
        </mxCell>
        <mxCell id="4aDgBQ0aaNmfEH5Fw95p-32" value="用户层" style="swimlane;whiteSpace=wrap;html=1;" vertex="1" parent="1">
          <mxGeometry x="1763" y="20" width="611" height="105" as="geometry" />
        </mxCell>
        <mxCell id="4aDgBQ0aaNmfEH5Fw95p-33" value="&lt;span style=&quot;font-size: 22px;&quot;&gt;森林消防车载系统&lt;/span&gt;" style="rounded=1;whiteSpace=wrap;html=1;flipH=1;" vertex="1" parent="4aDgBQ0aaNmfEH5Fw95p-32">
          <mxGeometry x="11" y="35" width="99" height="60" as="geometry" />
        </mxCell>
        <mxCell id="4aDgBQ0aaNmfEH5Fw95p-34" value="&lt;span style=&quot;font-size: 22px;&quot;&gt;森林消防单兵系统&lt;/span&gt;" style="rounded=1;whiteSpace=wrap;html=1;flipH=1;" vertex="1" parent="4aDgBQ0aaNmfEH5Fw95p-32">
          <mxGeometry x="129" y="35" width="100" height="60" as="geometry" />
        </mxCell>
        <mxCell id="4aDgBQ0aaNmfEH5Fw95p-35" value="&lt;span style=&quot;font-size: 22px;&quot;&gt;森林消防无人系统&lt;/span&gt;" style="rounded=1;whiteSpace=wrap;html=1;flipH=1;" vertex="1" parent="4aDgBQ0aaNmfEH5Fw95p-32">
          <mxGeometry x="247" y="35" width="103" height="60" as="geometry" />
        </mxCell>
        <mxCell id="4aDgBQ0aaNmfEH5Fw95p-36" value="&lt;span style=&quot;font-size: 22px;&quot;&gt;三维全息可视化系统&lt;/span&gt;" style="rounded=1;whiteSpace=wrap;html=1;flipH=1;" vertex="1" parent="4aDgBQ0aaNmfEH5Fw95p-32">
          <mxGeometry x="477" y="35" width="118" height="60" as="geometry" />
        </mxCell>
        <mxCell id="4aDgBQ0aaNmfEH5Fw95p-37" value="&lt;span style=&quot;font-size: 22px;&quot;&gt;人工智能交互系统&lt;/span&gt;" style="rounded=1;whiteSpace=wrap;html=1;flipH=1;" vertex="1" parent="4aDgBQ0aaNmfEH5Fw95p-32">
          <mxGeometry x="366" y="35" width="103" height="60" as="geometry" />
        </mxCell>
        <mxCell id="4aDgBQ0aaNmfEH5Fw95p-39" value="" style="shape=flexArrow;endArrow=classic;html=1;rounded=0;entryX=0.5;entryY=1;entryDx=0;entryDy=0;" edge="1" parent="1" source="4aDgBQ0aaNmfEH5Fw95p-7" target="4aDgBQ0aaNmfEH5Fw95p-22">
          <mxGeometry width="50" height="50" relative="1" as="geometry">
            <mxPoint x="1977" y="327.5" as="sourcePoint" />
            <mxPoint x="1977" y="282.5" as="targetPoint" />
          </mxGeometry>
        </mxCell>
        <mxCell id="4aDgBQ0aaNmfEH5Fw95p-40" value="提供以数字孪生为基础的统一数据索引" style="text;html=1;strokeColor=none;fillColor=none;align=center;verticalAlign=middle;whiteSpace=wrap;rounded=0;" vertex="1" parent="1">
          <mxGeometry x="2084" y="296" width="120" height="30" as="geometry" />
        </mxCell>
        <mxCell id="4aDgBQ0aaNmfEH5Fw95p-41" value="" style="shape=flexArrow;endArrow=classic;html=1;rounded=0;exitX=0.5;exitY=0;exitDx=0;exitDy=0;entryX=0.5;entryY=1;entryDx=0;entryDy=0;" edge="1" parent="1" source="4aDgBQ0aaNmfEH5Fw95p-22" target="4aDgBQ0aaNmfEH5Fw95p-32">
          <mxGeometry width="50" height="50" relative="1" as="geometry">
            <mxPoint x="1977" y="162.5" as="sourcePoint" />
            <mxPoint x="2007" y="142.5" as="targetPoint" />
          </mxGeometry>
        </mxCell>
        <mxCell id="4aDgBQ0aaNmfEH5Fw95p-42" value="提供业务数据" style="text;html=1;strokeColor=none;fillColor=none;align=center;verticalAlign=middle;whiteSpace=wrap;rounded=0;" vertex="1" parent="1">
          <mxGeometry x="2097" y="142" width="80" height="30" as="geometry" />
        </mxCell>
        <mxCell id="4aDgBQ0aaNmfEH5Fw95p-43" value="&lt;span style=&quot;font-size: 22px;&quot;&gt;制度安全保障体系&lt;/span&gt;" style="rounded=1;whiteSpace=wrap;html=1;" vertex="1" parent="1">
          <mxGeometry x="2394" y="20" width="27" height="760" as="geometry" />
        </mxCell>
        <mxCell id="4aDgBQ0aaNmfEH5Fw95p-44" value="&lt;font style=&quot;font-size: 22px;&quot;&gt;政策标准保障体系&lt;/font&gt;" style="rounded=1;whiteSpace=wrap;html=1;" vertex="1" parent="1">
          <mxGeometry x="1714" y="20" width="31" height="760" as="geometry" />
        </mxCell>
        <mxCell id="4aDgBQ0aaNmfEH5Fw95p-45" value="数据感知感知" style="swimlane;whiteSpace=wrap;html=1;" vertex="1" parent="1">
          <mxGeometry x="1764" y="673.5" width="611" height="101" as="geometry" />
        </mxCell>
        <mxCell id="4aDgBQ0aaNmfEH5Fw95p-46" value="&lt;span style=&quot;font-size: 22px;&quot;&gt;遥感&lt;/span&gt;" style="rounded=1;whiteSpace=wrap;html=1;" vertex="1" parent="4aDgBQ0aaNmfEH5Fw95p-45">
          <mxGeometry x="14" y="36" width="56" height="60" as="geometry" />
        </mxCell>
        <mxCell id="4aDgBQ0aaNmfEH5Fw95p-47" value="&lt;font style=&quot;font-size: 22px;&quot;&gt;卫星云图&lt;/font&gt;" style="rounded=1;whiteSpace=wrap;html=1;" vertex="1" parent="4aDgBQ0aaNmfEH5Fw95p-45">
          <mxGeometry x="76" y="35" width="54" height="60" as="geometry" />
        </mxCell>
        <mxCell id="4aDgBQ0aaNmfEH5Fw95p-73" value="&lt;font style=&quot;font-size: 22px;&quot;&gt;倾斜摄影&lt;/font&gt;" style="rounded=1;whiteSpace=wrap;html=1;" vertex="1" parent="4aDgBQ0aaNmfEH5Fw95p-45">
          <mxGeometry x="146" y="35" width="54" height="60" as="geometry" />
        </mxCell>
        <mxCell id="4aDgBQ0aaNmfEH5Fw95p-74" value="&lt;font style=&quot;font-size: 22px;&quot;&gt;红外扫描&lt;/font&gt;" style="rounded=1;whiteSpace=wrap;html=1;" vertex="1" parent="4aDgBQ0aaNmfEH5Fw95p-45">
          <mxGeometry x="216" y="35" width="54" height="60" as="geometry" />
        </mxCell>
        <mxCell id="4aDgBQ0aaNmfEH5Fw95p-75" value="&lt;font style=&quot;font-size: 22px;&quot;&gt;双光视频&lt;/font&gt;" style="rounded=1;whiteSpace=wrap;html=1;" vertex="1" parent="4aDgBQ0aaNmfEH5Fw95p-45">
          <mxGeometry x="286" y="35" width="64" height="60" as="geometry" />
        </mxCell>
        <mxCell id="4aDgBQ0aaNmfEH5Fw95p-76" value="&lt;font style=&quot;font-size: 22px;&quot;&gt;地面温湿度感知&lt;/font&gt;" style="rounded=1;whiteSpace=wrap;html=1;" vertex="1" parent="4aDgBQ0aaNmfEH5Fw95p-45">
          <mxGeometry x="356" y="35" width="94" height="60" as="geometry" />
        </mxCell>
        <mxCell id="4aDgBQ0aaNmfEH5Fw95p-77" value="&lt;font style=&quot;font-size: 22px;&quot;&gt;烟感&lt;/font&gt;" style="rounded=1;whiteSpace=wrap;html=1;" vertex="1" parent="4aDgBQ0aaNmfEH5Fw95p-45">
          <mxGeometry x="461" y="35" width="64" height="60" as="geometry" />
        </mxCell>
        <mxCell id="4aDgBQ0aaNmfEH5Fw95p-78" value="&lt;font style=&quot;font-size: 22px;&quot;&gt;其它感知&lt;/font&gt;" style="rounded=1;whiteSpace=wrap;html=1;" vertex="1" parent="4aDgBQ0aaNmfEH5Fw95p-45">
          <mxGeometry x="536" y="35" width="64" height="60" as="geometry" />
        </mxCell>
        <mxCell id="4aDgBQ0aaNmfEH5Fw95p-69" value="" style="shape=flexArrow;endArrow=classic;html=1;rounded=0;entryX=0.5;entryY=1;entryDx=0;entryDy=0;exitX=0.5;exitY=0;exitDx=0;exitDy=0;" edge="1" parent="1" source="4aDgBQ0aaNmfEH5Fw95p-1" target="4aDgBQ0aaNmfEH5Fw95p-7">
          <mxGeometry width="50" height="50" relative="1" as="geometry">
            <mxPoint x="2070.5" y="600" as="sourcePoint" />
            <mxPoint x="2069.5" y="540" as="targetPoint" />
          </mxGeometry>
        </mxCell>
        <mxCell id="4aDgBQ0aaNmfEH5Fw95p-70" value="网格网络" style="text;html=1;strokeColor=none;fillColor=none;align=center;verticalAlign=middle;whiteSpace=wrap;rounded=0;" vertex="1" parent="1">
          <mxGeometry x="2074.5" y="480" width="90" height="30" as="geometry" />
        </mxCell>
        <mxCell id="4aDgBQ0aaNmfEH5Fw95p-71" value="" style="shape=flexArrow;endArrow=classic;html=1;rounded=0;entryX=0.5;entryY=1;entryDx=0;entryDy=0;exitX=0.5;exitY=0;exitDx=0;exitDy=0;" edge="1" parent="1" source="4aDgBQ0aaNmfEH5Fw95p-45" target="4aDgBQ0aaNmfEH5Fw95p-1">
          <mxGeometry width="50" height="50" relative="1" as="geometry">
            <mxPoint x="2130" y="765" as="sourcePoint" />
            <mxPoint x="2129" y="705" as="targetPoint" />
          </mxGeometry>
        </mxCell>
        <mxCell id="4aDgBQ0aaNmfEH5Fw95p-72" value="通信保障" style="text;html=1;strokeColor=none;fillColor=none;align=center;verticalAlign=middle;whiteSpace=wrap;rounded=0;" vertex="1" parent="1">
          <mxGeometry x="2087" y="630" width="90" height="30" as="geometry" />
        </mxCell>
      </root>
    </mxGraphModel>
  </diagram>
</mxfile>
